<?xml version="1.0" encoding="UTF-8" standalone="no"?>
<svg
   xmlns:dc="http://purl.org/dc/elements/1.1/"
   xmlns:cc="http://creativecommons.org/ns#"
   xmlns:rdf="http://www.w3.org/1999/02/22-rdf-syntax-ns#"
   xmlns:svg="http://www.w3.org/2000/svg"
   xmlns="http://www.w3.org/2000/svg"
   xmlns:sodipodi="http://sodipodi.sourceforge.net/DTD/sodipodi-0.dtd"
   xmlns:inkscape="http://www.inkscape.org/namespaces/inkscape"
   width="2048"
   height="512"
   viewBox="0 0 541.86664 135.46667"
   version="1.1"
   id="svg8"
   inkscape:version="1.0.2 (394de47547, 2021-03-26)"
   sodipodi:docname="logo-full.svg">
  <defs
     id="defs2">
    <clipPath
       clipPathUnits="userSpaceOnUse"
       id="clipPath34">
      <path
         d="M 0,1200 H 1920 V 0 H 0 Z"
         id="path36"
         inkscape:connector-curvature="0" />
    </clipPath>
    <clipPath
       clipPathUnits="userSpaceOnUse"
       id="clipPath72">
      <path
         d="M 0,1200 H 1920 V 0 H 0 Z"
         id="path74"
         inkscape:connector-curvature="0" />
    </clipPath>
    <clipPath
       clipPathUnits="userSpaceOnUse"
       id="clipPath80">
      <path
         d="m 471.224,2000.53 h 47.741 v -10.23 h -47.741 z"
         id="path82"
         inkscape:connector-curvature="0" />
    </clipPath>
    <clipPath
       clipPathUnits="userSpaceOnUse"
       id="clipPath96">
      <path
         d="m 524.665,1986.71 h 83.839 v -17.96 h -83.839 z"
         id="path98"
         inkscape:connector-curvature="0" />
    </clipPath>
    <clipPath
       clipPathUnits="userSpaceOnUse"
       id="clipPath2632">
      <path
         d="M -39.2676,2045.85 H 137.004 v -37.78 H -39.2676 Z"
         id="path2634"
         inkscape:connector-curvature="0" />
    </clipPath>
    <clipPath
       clipPathUnits="userSpaceOnUse"
       id="clipPath2648">
      <path
         d="m 448.711,2119.59 h 117.353 v -25.15 H 448.711 Z"
         id="path2650"
         inkscape:connector-curvature="0" />
    </clipPath>
    <clipPath
       clipPathUnits="userSpaceOnUse"
       id="clipPath2664">
      <path
         d="M 78.7056,2168.26 H 196.059 v -25.15 H 78.7056 Z"
         id="path2666"
         inkscape:connector-curvature="0" />
    </clipPath>
    <clipPath
       clipPathUnits="userSpaceOnUse"
       id="clipPath2680">
      <path
         d="m 247.766,2056.98 h 59.502 v -12.75 h -59.502 z"
         id="path2682"
         inkscape:connector-curvature="0" />
    </clipPath>
  </defs>
  <sodipodi:namedview
     id="base"
     pagecolor="#ffffff"
     bordercolor="#666666"
     borderopacity="1.0"
     inkscape:pageopacity="0.0"
     inkscape:pageshadow="2"
     inkscape:zoom="0.35"
     inkscape:cx="933.03037"
     inkscape:cy="325.20044"
     inkscape:document-units="mm"
     inkscape:current-layer="layer1"
     inkscape:document-rotation="0"
     showgrid="false"
     units="px"
     inkscape:window-width="2272"
     inkscape:window-height="1352"
     inkscape:window-x="1632"
     inkscape:window-y="51"
     inkscape:window-maximized="0"
     showguides="true"
     inkscape:guide-bbox="true" />
  <metadata
     id="metadata5">
    <rdf:RDF>
      <cc:Work
         rdf:about="">
        <dc:format>image/svg+xml</dc:format>
        <dc:type
           rdf:resource="http://purl.org/dc/dcmitype/StillImage" />
        <dc:title></dc:title>
      </cc:Work>
    </rdf:RDF>
  </metadata>
  <g
     inkscape:label="Layer 1"
     inkscape:groupmode="layer"
     id="layer1">
    <g
       id="g1091"
       transform="translate(-5.8775185)">
      <g
         id="g4172"
         transform="matrix(0.17810905,0,0,-0.17810905,-42.005202,210.07727)">
        <g
           transform="matrix(1.5368611,0,0,1.5368611,284.48053,673.45605)"
           id="g14">
          <path
             inkscape:connector-curvature="0"
             id="path16"
             style="fill:#0ca579;fill-opacity:1;fill-rule:nonzero;stroke:none"
             d="M 0,0 149.456,-89.981 V 114.226 Z" />
        </g>
        <g
           transform="matrix(1.5368611,0,0,1.5368611,638.39613,1179.4868)"
           id="g18">
          <path
             inkscape:connector-curvature="0"
             id="path20"
             style="fill:#00ea90;fill-opacity:1;fill-rule:nonzero;stroke:none"
             d="M 0,0 V -196.574 L -230.285,-329.263 V -129.63 Z" />
        </g>
        <g
           transform="matrix(1.5368611,0,0,1.5368611,947.78164,924.93386)"
           id="g22">
          <path
             inkscape:connector-curvature="0"
             id="path24"
             style="fill:#333333;fill-opacity:1;fill-rule:nonzero;stroke:none"
             d="M 0,0 -149.457,89.975 V -114.226 Z" />
        </g>
        <g
           transform="matrix(1.5368611,0,0,1.5368611,593.86619,418.90406)"
           id="g26">
          <path
             inkscape:connector-curvature="0"
             id="path28"
             style="fill:#494949;fill-opacity:1;fill-rule:nonzero;stroke:none"
             d="M 0,0 V 196.574 L 230.285,329.262 V 129.63 Z" />
        </g>
      </g>
      <g
         id="g1026"
         transform="matrix(10.170733,0,0,10.170733,-1411.8662,-670.77676)"
         style="fill:#00ea90;fill-opacity:1">
        <g
           transform="matrix(0.33072917,0,0,-0.33072917,159.63467,75.564959)"
           id="g3258"
           style="fill:#00ea90;fill-opacity:1">
          <path
             inkscape:connector-curvature="0"
             id="path3260"
             style="fill:#00ea90;fill-opacity:1;fill-rule:nonzero;stroke:none"
             d="m 0,0 c -1.142,0 -2.201,0.165 -3.178,0.494 -0.977,0.329 -1.828,0.823 -2.552,1.482 -0.725,0.658 -1.291,1.482 -1.696,2.47 -0.407,0.988 -0.61,2.14 -0.61,3.458 v 14.754 h 2.371 V 8.068 c 0,-1.998 0.505,-3.49 1.516,-4.479 C -3.14,2.602 -1.757,2.107 0,2.107 c 1.734,0 3.112,0.495 4.133,1.482 1.021,0.989 1.532,2.481 1.532,4.479 v 14.59 H 8.036 V 7.904 C 8.036,6.586 7.833,5.434 7.426,4.446 7.02,3.458 6.455,2.634 5.73,1.976 5.006,1.317 4.155,0.823 3.178,0.494 2.201,0.165 1.142,0 0,0" />
        </g>
        <g
           transform="matrix(0.33072917,0,0,-0.33072917,168.06506,68.071397)"
           id="g3262"
           style="fill:#00ea90;fill-opacity:1">
          <path
             inkscape:connector-curvature="0"
             id="path3264"
             style="fill:#00ea90;fill-opacity:1;fill-rule:nonzero;stroke:none"
             d="m 0,0 h 7.607 c 1.054,0 1.965,-0.143 2.734,-0.429 0.768,-0.286 1.404,-0.682 1.91,-1.188 0.505,-0.506 0.884,-1.094 1.136,-1.765 0.252,-0.671 0.379,-1.381 0.379,-2.129 0,-1.122 -0.243,-2.068 -0.725,-2.838 -0.483,-0.77 -1.208,-1.309 -2.174,-1.617 1.449,-0.351 2.58,-1.041 3.393,-2.072 0.811,-1.03 1.219,-2.291 1.219,-3.781 0,-0.92 -0.144,-1.781 -0.429,-2.581 -0.285,-0.8 -0.725,-1.496 -1.318,-2.087 -0.592,-0.592 -1.334,-1.058 -2.222,-1.398 -0.89,-0.34 -1.927,-0.51 -3.113,-0.51 H 0 Z m 7.771,-9.188 c 1.296,0 2.224,0.331 2.784,0.992 0.559,0.662 0.84,1.511 0.84,2.548 0,0.507 -0.072,0.976 -0.214,1.406 -0.144,0.43 -0.374,0.805 -0.692,1.125 -0.319,0.32 -0.724,0.568 -1.218,0.744 -0.495,0.177 -1.104,0.265 -1.829,0.265 H 2.371 v -7.08 z m 0.461,-11.099 c 0.857,0 1.592,0.116 2.207,0.346 0.615,0.231 1.115,0.548 1.499,0.955 0.383,0.406 0.669,0.883 0.856,1.433 0.186,0.548 0.28,1.152 0.28,1.811 0,1.317 -0.401,2.404 -1.202,3.261 -0.802,0.856 -2.059,1.284 -3.77,1.284 H 2.371 v -9.09 z" />
        </g>
        <path
           inkscape:connector-curvature="0"
           id="path3266"
           style="fill:#00ea90;fill-opacity:1;fill-rule:nonzero;stroke:none;stroke-width:0.330729"
           d="m 178.54269,68.071463 h 0.79508 v 7.40668 h -0.79508 z" />
        <g
           transform="matrix(0.33072917,0,0,-0.33072917,188.9772,77.231537)"
           id="g3268"
           style="fill:#00ea90;fill-opacity:1">
          <path
             inkscape:connector-curvature="0"
             id="path3270"
             style="fill:#00ea90;fill-opacity:1;fill-rule:nonzero;stroke:none"
             d="m 0,0 h -2.305 v 5.072 c -1.449,0.132 -2.805,0.505 -4.067,1.119 -1.263,0.615 -2.36,1.422 -3.293,2.421 -0.934,0.999 -1.669,2.168 -2.207,3.508 -0.538,1.338 -0.807,2.799 -0.807,4.38 0,1.69 0.302,3.238 0.906,4.643 0.603,1.405 1.421,2.612 2.454,3.623 1.031,1.009 2.25,1.795 3.655,2.355 1.404,0.559 2.898,0.839 4.478,0.839 1.603,0 3.102,-0.28 4.497,-0.839 1.393,-0.56 2.612,-1.346 3.655,-2.355 1.043,-1.011 1.865,-2.218 2.47,-3.623 0.603,-1.405 0.906,-2.953 0.906,-4.643 0,-1.581 -0.269,-3.042 -0.805,-4.38 C 9.001,10.78 8.268,9.611 7.337,8.612 6.407,7.613 5.312,6.812 4.055,6.208 2.796,5.604 1.445,5.236 0,5.104 Z M -2.305,11.922 H 0 V 7.179 c 1.159,0.132 2.22,0.456 3.182,0.972 0.962,0.516 1.792,1.185 2.492,2.009 0.699,0.823 1.24,1.773 1.623,2.849 0.383,1.075 0.574,2.25 0.574,3.524 0,1.339 -0.225,2.573 -0.675,3.704 -0.45,1.131 -1.082,2.113 -1.893,2.948 -0.813,0.834 -1.768,1.487 -2.865,1.96 -1.099,0.471 -2.306,0.708 -3.624,0.708 -1.294,0 -2.497,-0.237 -3.605,-0.708 -1.109,-0.473 -2.064,-1.126 -2.865,-1.96 -0.802,-0.835 -1.428,-1.817 -1.877,-2.948 -0.451,-1.131 -0.676,-2.365 -0.676,-3.704 0,-1.274 0.198,-2.449 0.593,-3.524 0.395,-1.076 0.938,-2.026 1.631,-2.849 0.691,-0.824 1.519,-1.493 2.486,-2.009 0.966,-0.516 2.03,-0.84 3.194,-0.972 z" />
        </g>
      </g>
    </g>
  </g>
</svg>
